<svg xmlns="http://www.w3.org/2000/svg" width="35" height="35" viewBox="0 0 35 35"><defs><style>.a,.b{fill:none;}.b{stroke:#2c3e50;stroke-linecap:round;stroke-linejoin:round;stroke-width:1.5px;}</style></defs><path class="a" d="M0,0H35V35H0Z"/><path class="b" d="M4,8.375V6.917A2.917,2.917,0,0,1,6.917,4H9.833" transform="translate(1.833 1.833)"/><path class="b" d="M4,17v1.458a2.917,2.917,0,0,0,2.917,2.917H9.833" transform="translate(1.833 7.791)"/><path class="b" d="M16,4h2.917a2.917,2.917,0,0,1,2.917,2.917V8.375" transform="translate(7.333 1.833)"/><path class="b" d="M16,21.375h2.917a2.917,2.917,0,0,0,2.917-2.917V17" transform="translate(7.333 7.791)"/><rect class="b" width="2" height="3" transform="translate(7 16)"/><line class="b" y2="3" transform="translate(15 16)"/><rect class="b" width="2" height="3" transform="translate(20 16)"/><line class="b" y2="3" transform="translate(28 16)"/></svg>