<svg xmlns="http://www.w3.org/2000/svg" width="29.5" height="29.5" viewBox="0 0 29.5 29.5"><defs><style>.a,.b{fill:none;}.b{stroke:#fff;stroke-linecap:round;stroke-linejoin:round;stroke-width:2px;}</style></defs><path class="a" d="M0,0H29.5V29.5H0Z"/><path class="b" d="M12,4.619a2.119,2.119,0,0,1,4.118,0,2.119,2.119,0,0,0,3.163,1.31A2.12,2.12,0,0,1,22.2,8.842,2.119,2.119,0,0,0,23.506,12a2.119,2.119,0,0,1,0,4.118,2.119,2.119,0,0,0-1.31,3.163A2.12,2.12,0,0,1,19.283,22.2a2.119,2.119,0,0,0-3.161,1.309,2.119,2.119,0,0,1-4.118,0A2.119,2.119,0,0,0,8.841,22.2a2.12,2.12,0,0,1-2.913-2.913,2.119,2.119,0,0,0-1.309-3.161,2.119,2.119,0,0,1,0-4.118,2.119,2.119,0,0,0,1.31-3.163A2.12,2.12,0,0,1,8.842,5.928,2.117,2.117,0,0,0,12,4.619Z" transform="translate(0.688 0.688)"/><circle class="b" cx="4" cy="4" r="4" transform="translate(10.75 10.75)"/></svg>