<svg xmlns="http://www.w3.org/2000/svg" width="38.493" height="38.493" viewBox="0 0 38.493 38.493"><defs><style>.a,.b{fill:none;}.b{stroke:#fff;stroke-linecap:round;stroke-linejoin:round;stroke-width:2px;}</style></defs><path class="a" d="M0,0H38.493V38.493H0Z"/><circle class="b" cx="3.5" cy="3.5" r="3.5" transform="translate(27 17.493)"/><ellipse class="b" cx="3.5" cy="3" rx="3.5" ry="3" transform="translate(3 24.493)"/><circle class="b" cx="3" cy="3" r="3" transform="translate(18 24.493)"/><line class="b" x1="15" transform="translate(6 30.493)"/><line class="b" x2="15" transform="translate(6 24.493)"/><path class="b" d="M8,15.019V7h3.208a4.812,4.812,0,0,1,4.812,4.812v8.019" transform="translate(4.831 4.227)"/><path class="b" d="M5,16.812V13.6A1.6,1.6,0,0,1,6.6,12H17.831" transform="translate(3.019 7.246)"/><path class="b" d="M22.623,15.227V4L13,15.227" transform="translate(7.85 2.415)"/></svg>