<svg xmlns="http://www.w3.org/2000/svg" width="35" height="35" viewBox="0 0 35 35"><defs><style>.a,.b{fill:none;}.b{stroke:#003f5c;stroke-linecap:round;stroke-linejoin:round;stroke-width:1.5px;}</style></defs><path class="a" d="M0,0H35V35H0Z"/><path class="b" d="M4,17.125A11.667,11.667,0,0,1,14.208,27.333a8.75,8.75,0,0,0,4.375-7.292,13.125,13.125,0,0,0,8.75-11.667A4.375,4.375,0,0,0,22.958,4a13.125,13.125,0,0,0-11.667,8.75A8.75,8.75,0,0,0,4,17.125" transform="translate(1.833 1.833)"/><path class="b" d="M8.4,14a8.75,8.75,0,0,0-4.375,8.75,8.75,8.75,0,0,0,8.75-4.375" transform="translate(1.81 6.417)"/><circle class="b" cx="1.5" cy="1.5" r="1.5" transform="translate(20 12)"/></svg>