<svg xmlns="http://www.w3.org/2000/svg" width="24" height="24" viewBox="0 0 24 24"><defs><style>.a,.b{fill:none;}.b{stroke:#2c3e50;stroke-linecap:round;stroke-linejoin:round;stroke-width:1.5px;}</style></defs><path class="a" d="M0,0H24V24H0Z"/><path class="b" d="M4,7V6A2,2,0,0,1,6,4H8"/><path class="b" d="M4,17v1a2,2,0,0,0,2,2H8"/><path class="b" d="M16,4h2a2,2,0,0,1,2,2V7"/><path class="b" d="M16,20h2a2,2,0,0,0,2-2V17"/><rect class="b" width="1" height="2" transform="translate(5 11)"/><line class="b" y2="2" transform="translate(10 11)"/><rect class="b" width="1" height="2" transform="translate(14 11)"/><line class="b" y2="2" transform="translate(19 11)"/></svg>